<svg width="86" height="48" viewBox="0 0 86 48" fill="none" xmlns="http://www.w3.org/2000/svg">
<g clip-path="url(#clip0_26391_11257)">
<path fill-rule="evenodd" clip-rule="evenodd" d="M15.5786 13.9324C15.167 14.1675 14.6086 14.1969 14.0501 14.1675C12.4628 14.4908 10.6698 14.5202 9.08253 14.873C8.43587 14.9905 7.78921 15.0787 7.08376 15.1081C6.96618 15.2551 6.76042 15.2845 6.49588 15.1963C5.90801 15.4021 5.26134 15.549 4.58529 15.5784C3.82105 15.8724 2.76287 15.7842 2.67469 16.7836C2.67469 16.9599 2.82166 17.0187 2.82166 17.1657C3.1156 17.7829 3.79165 18.1063 4.67347 18.1063C4.64407 18.4296 4.37953 18.3414 4.17377 18.3414C3.96802 18.4296 3.82105 18.606 3.5565 18.5472C3.1156 19.9875 4.11499 20.4284 5.40831 20.4578C5.99619 20.3402 6.67224 20.399 6.99557 20.4872C6.52527 20.6929 5.99619 20.8105 5.43771 20.8105C4.32074 21.1044 3.0862 21.2514 1.88106 21.369C1.58712 21.1926 1.55773 21.4572 1.32258 21.3396C1.38137 21.4866 1.38137 21.6923 1.29319 21.9569C0.881673 21.9569 1.32258 21.3396 0.911067 21.6041C0.617129 21.6041 0.411373 21.8393 0.146829 21.8981C-0.000139907 22.2508 0.0880414 22.4566 0.0880414 22.7211C0.323191 22.8975 0.323191 23.2208 0.499554 23.4265C1.6753 23.7793 2.73348 23.8381 3.73287 23.8675C3.73287 23.8381 3.76226 23.7793 3.76226 23.7499C4.17377 23.9262 4.40892 23.7793 4.76165 23.8675C5.99619 23.7205 7.28951 23.7499 8.58284 23.7205C9.46465 23.6029 10.4934 23.7205 11.3752 23.5735C11.9631 23.5147 12.5216 23.4265 13.1977 23.5441C13.2564 23.4265 13.4034 23.4853 13.5504 23.5147C13.6974 23.2796 14.1383 23.5735 14.1089 23.0444C14.344 23.0444 14.3734 23.1914 14.5204 23.2796C14.8437 23.4559 14.8731 23.162 15.1964 23.3384L14.8437 23.8675C14.638 23.985 14.3146 23.9262 14.0207 23.8968C13.7855 23.9556 13.5798 24.0732 13.2858 24.0732C11.1401 24.279 8.55344 24.5435 6.34891 24.8962C4.58529 25.2784 2.08682 25.2784 1.05804 25.7487C0.793491 25.8662 0.499554 25.9838 0.440766 26.4541C0.617129 27.2183 1.205 27.8944 2.05742 27.9532C2.11621 27.9826 2.20439 27.9826 2.26318 28.012C2.11621 28.7762 2.88045 28.9232 2.55712 29.7756C1.91045 29.952 1.205 30.0107 0.528948 30.1283C0.0292538 30.8926 0.822885 31.3041 0.793492 32.0095C1.44015 32.0683 1.91045 32.0683 2.43954 32.3035C2.85105 32.1271 3.46832 32.2741 4.0268 32.3329C4.61468 32.2153 5.67286 32.0977 6.20194 32.3916C5.70225 32.6856 5.08498 32.8326 4.37953 32.7738C3.96802 32.9795 3.43893 32.9501 3.02742 33.1559C2.79227 34.4786 3.52711 35.331 4.9674 35.2134C5.52589 35.0077 6.76042 35.0959 6.99557 35.9483C7.05436 36.2422 7.23072 36.448 7.14254 36.8301C6.76042 36.9183 6.4077 37.0652 5.96679 37.0359C3.96802 37.3592 1.85167 37.5356 0.0880414 38.241C-0.205896 38.9465 0.352585 39.0346 0.23501 39.6225C0.440766 40.1222 0.969854 39.8577 1.52834 40.0634C2.58651 39.9752 3.76226 40.0634 4.84983 40.034C5.79043 40.1222 7.08376 39.5931 7.75981 40.2986C7.75981 40.328 7.75981 40.3573 7.73042 40.4161C7.8186 41.9446 9.55283 41.298 10.6992 41.5331C11.1107 41.4449 11.5222 41.3567 12.0807 41.5037C11.8161 41.9446 11.1989 41.7682 11.0519 42.4737L12.1395 42.8264C12.6098 43.2379 13.1977 42.9734 13.8737 43.2673C15.2258 43.091 17.3716 42.8558 17.4598 44.6488C18.3416 45.0016 18.7531 44.5313 19.5173 44.6782C20.5755 44.7076 21.5455 44.5607 22.6331 44.6194C23.1034 44.4137 23.6618 44.3843 24.2791 44.4137C26.2485 44.2373 28.1591 43.9728 30.2166 43.9434C30.6575 43.8846 30.9809 43.5319 31.6275 43.7964L23.7794 45.2955C23.603 46.1479 24.3967 47.5 24.867 47.9409C35.3605 46.0597 46.8241 46.3831 57.3177 44.2667C59.0813 43.914 61.4328 43.2967 63.4904 43.2673C63.4022 42.5325 63.6961 41.5625 63.167 41.1216C58.8756 42.1504 54.5253 43.0322 49.9105 43.5319C49.2638 43.767 48.088 43.8552 47.4708 43.6495C47.7059 43.4143 47.9705 43.2085 48.3526 43.2673C48.5877 43.0322 48.9993 43.1204 49.3226 43.0322C49.6753 42.8558 50.0868 42.7382 50.5277 42.7382C50.5571 42.6207 50.6747 42.6795 50.7629 42.6795C51.0568 42.4443 51.5859 42.5913 51.8504 42.3561C58.7286 40.5925 64.9601 40.4749 71.8088 38.6231C71.8676 38.0646 73.1021 36.2128 72.573 35.7425L74.807 34.7137C74.8364 34.655 74.8951 34.655 74.9245 34.5668C74.9539 34.3904 74.6306 34.4492 74.513 34.3904C74.5718 34.1553 74.3073 34.1259 74.1309 34.0671C74.0133 34.1553 73.8076 34.0671 73.6018 34.0083C73.6018 34.0377 73.6018 34.0671 73.5724 34.0965C73.4255 34.0671 73.2785 34.0377 73.1315 33.9789C72.9552 34.0965 72.72 34.1259 72.4261 34.0377C72.3085 34.1553 72.0146 33.9495 71.897 34.0671C71.3679 34.1553 70.8682 34.2141 70.2803 34.1553C70.0746 34.2141 69.8982 34.361 69.5749 34.2141C69.134 34.361 68.5755 34.2435 68.1052 34.3316C68.0464 34.508 67.7819 34.3022 67.6643 34.3022L67.9876 33.8907C68.164 33.7438 68.3991 33.6556 68.6931 33.7438C69.0164 33.7438 69.2222 33.5086 69.6337 33.6556C69.7218 33.4498 70.0158 33.5968 70.1922 33.538C70.78 33.4792 71.2797 33.3029 71.9264 33.3322C72.6906 33.1853 73.5136 33.1559 74.2779 33.0383C75.1009 32.9795 75.777 32.7444 76.6294 32.7444C76.9527 32.4798 77.5994 32.7444 77.8051 32.3035C77.9521 31.4804 76.8939 30.922 76.2179 31.2453C76.1591 31.2159 76.1297 31.2159 76.0709 31.2159C75.7182 31.0983 75.5124 31.2747 75.1597 31.1571C75.1303 31.1571 75.1009 31.1571 75.1009 31.1277C74.9539 31.2453 74.66 31.0689 74.4836 31.1277C74.3955 31.3041 74.0721 31.0689 73.8958 31.0689C73.9839 30.9513 74.1897 30.9807 74.3073 30.922C74.5424 30.8632 74.807 30.8926 75.0715 30.8632C75.0715 30.8338 75.0715 30.8044 75.1009 30.775C76.1885 30.6868 77.1879 30.481 78.246 30.3635C78.5106 30.2459 78.9221 30.3341 79.1572 30.0989C79.363 29.5404 78.9221 29.4229 78.8633 29.0408C77.9815 28.835 77.2173 28.835 76.453 28.835C76.3061 28.9232 76.1003 28.9232 75.8358 28.835C75.483 28.7762 75.2773 29.0114 74.8364 28.835C74.1897 28.835 73.6018 28.9526 72.8964 28.9232C72.573 29.0408 72.0733 28.9526 71.7794 29.1289C71.75 29.2171 71.6324 29.1583 71.5443 29.1583C70.927 28.9526 70.3391 29.4229 69.81 29.0408C70.6037 28.7468 71.5443 28.7174 72.573 28.5998C73.3079 28.5411 73.9546 28.3353 74.6894 28.3059C74.9539 28.1589 75.3361 28.1295 75.7182 28.1589C76.7764 27.9238 77.9815 27.9238 79.0397 27.6886C79.4806 27.6005 79.9215 27.5417 80.3624 27.5417C80.4506 27.4535 80.5975 27.4241 80.7445 27.4829C81.156 27.3653 81.5675 27.2477 82.0378 27.2183C82.5375 27.0126 83.243 27.0714 83.3018 26.3953C83.3018 26.2777 83.2136 26.2483 83.2136 26.1308C83.0078 25.7193 82.5669 25.4841 81.979 25.4841C82.0084 25.2784 82.1848 25.3371 82.3318 25.3371C82.4493 25.2784 82.5669 25.1608 82.7433 25.1902C83.0372 24.2496 82.3612 23.9556 81.5087 23.8968C81.0972 23.985 80.6563 23.9262 80.4506 23.8675C80.7445 23.7205 81.0972 23.6617 81.4794 23.6323C82.2436 23.4265 83.0372 23.3384 83.8602 23.2502C84.0366 23.3678 84.066 23.1914 84.2424 23.2502C84.1836 23.1326 84.1836 23.015 84.2424 22.8387C84.5363 22.8387 84.213 23.2502 84.5069 23.0738C84.7127 23.0738 84.8302 22.9269 85.0066 22.8681C85.0948 22.6329 85.036 22.4859 85.0654 22.3096C84.889 22.192 84.9184 21.9863 84.8008 21.8393C84.0072 21.6041 83.3018 21.5747 82.6551 21.5453C82.6551 21.5747 82.6551 21.6041 82.6257 21.6335C82.3612 21.516 82.1848 21.6041 81.9496 21.5453C81.1266 21.6335 80.2742 21.6335 79.3924 21.6335C78.8045 21.6923 78.1285 21.6335 77.5406 21.7511C77.1585 21.7805 76.7764 21.8393 76.3061 21.7511C76.2767 21.8393 76.1591 21.7805 76.0709 21.7805C75.9827 21.9569 75.6888 21.7511 75.6888 22.1038C75.5418 22.1038 75.5124 22.0156 75.4242 21.9569C75.2185 21.8393 75.1891 22.045 74.9833 21.9275C74.2485 22.0156 73.4549 21.9569 72.72 22.1038C72.5143 22.1332 72.044 22.1038 71.75 22.2802C71.5149 22.2214 71.3091 22.3684 71.1621 22.1332C71.2797 21.9275 71.5737 22.045 71.7794 22.045C71.9558 21.8981 72.3379 22.0744 72.5436 21.9863C73.2785 21.7217 74.2191 21.7217 75.1597 21.5747C75.3067 21.4866 75.5124 21.5453 75.7182 21.5453C75.8652 21.4866 76.0121 21.4278 76.2179 21.4278C77.6582 21.2808 79.3924 21.1044 80.8327 20.8693C82.0084 20.6929 83.6839 20.6929 84.3893 20.3696C84.5657 20.2814 84.7421 20.2226 84.8008 19.8993C84.6833 19.3996 84.3011 18.9293 83.7133 18.8999C83.6545 18.8999 83.6251 18.8705 83.5663 18.8705C83.6839 18.3708 83.1548 18.2532 83.3605 17.6948C83.7721 17.5772 84.2718 17.5478 84.7127 17.4596C85.0654 16.9599 84.5069 16.6954 84.5363 16.1957C84.1248 16.1663 83.8015 16.1663 83.4487 15.9899C83.1842 16.1075 82.7727 16.0193 82.3906 15.9605C82.0084 16.0193 81.303 16.1369 80.9503 15.9311C81.2736 15.7254 81.6851 15.6372 82.1554 15.6666C82.42 15.5196 82.8021 15.549 83.0666 15.4021C83.243 14.5202 82.7433 13.9618 81.7733 14.0205C81.3912 14.1675 80.5975 14.1087 80.4212 13.5209C80.3918 13.3151 80.2448 13.1975 80.333 12.933C80.5975 12.8742 80.8327 12.786 81.1266 12.8154C82.4493 12.5803 83.8602 12.4921 85.0654 12.0218C85.2711 11.5515 84.889 11.4927 84.9478 11.1106C84.8008 10.7578 84.4775 10.9636 84.0954 10.8166C83.39 10.8754 82.5963 10.8166 81.8615 10.8166C81.2442 10.7578 80.3918 11.1106 79.9215 10.6403C79.9215 10.6109 79.9215 10.5815 79.9509 10.5521C79.8921 9.5233 78.7457 9.96421 77.9815 9.81724C77.7169 9.87603 77.423 9.93482 77.0703 9.81724C77.2467 9.5233 77.6582 9.64088 77.7463 9.17058C77.8051 8.84725 77.4524 8.78846 77.5112 8.46513C77.4818 8.46513 77.4524 8.46513 77.423 8.43573C77.9227 7.61271 77.7757 6.7015 76.8645 6.43696C77.276 5.99605 76.9821 5.67272 76.9821 5.17303C76.8645 4.90848 76.4824 4.67333 76.1591 4.73212C75.8945 4.73212 75.7476 4.8497 75.3948 4.70273C75.2479 4.20303 75.3067 3.58576 74.8658 3.26243C74.5424 2.99789 74.1603 3.17425 73.7194 2.9685C72.8082 3.08607 71.3679 3.23304 71.3385 2.05729C70.7506 1.82214 70.4861 2.11608 69.957 2.0279C69.2515 1.9985 68.6049 2.11608 67.8994 2.08668C67.5761 2.20426 67.194 2.23365 66.8119 2.20426C65.4892 2.32183 64.2252 2.4982 62.8437 2.4982C62.5498 2.55698 62.344 2.76274 61.9031 2.58638C60.4922 2.64516 59.1401 2.88031 57.6998 2.90971C57.1707 2.99789 56.5828 3.05668 55.995 3.05668C56.1713 2.82153 56.4653 2.79213 56.7592 2.76274C59.9337 1.85153 63.4316 1.5282 66.8413 1.0579C66.9588 0.499421 66.7531 0.117302 66.4297 -0.176636C60.8449 0.822752 54.8192 0.881539 49.058 1.58699C49.058 1.5576 49.0874 1.5282 49.0874 1.46941C48.7935 -0.000273228 46.9417 -0.147242 45.619 0.117302C44.8547 0.234877 44.1787 0.499421 43.3556 0.528814C42.5914 0.646389 41.886 0.852146 41.0923 0.940327C40.9454 1.11669 40.5926 0.940327 40.3869 0.999114C40.0342 1.23426 39.5345 1.20487 39.0642 1.26366C38.6233 1.46941 38.0354 1.41063 37.5357 1.49881C36.1542 2.05729 34.4787 2.0279 33.156 2.52759C33.0678 2.55698 32.9503 2.61577 32.8033 2.55698C32.48 2.61577 32.186 2.76274 31.7451 2.67456C31.1572 2.82153 30.5106 2.90971 29.8639 2.9391C28.3648 3.26243 26.8364 3.49758 25.1609 3.46819C24.9258 3.46819 24.7788 3.67395 24.4555 3.52698C23.9558 3.70334 23.4561 3.82091 22.8094 3.73273C22.4567 3.82091 22.0158 3.73273 21.6337 3.79152C20.7812 3.8797 19.9288 3.93849 19.0764 3.99728C18.1946 3.79152 17.6949 4.26182 16.8719 4.17364C16.4016 4.26182 15.8431 4.17364 15.4316 4.43818C15.4022 4.52637 15.2846 4.52636 15.2846 4.64394C15.2258 4.90848 15.7255 4.8203 15.9019 4.93788C15.8137 5.2906 16.2252 5.32 16.4604 5.43757C16.6367 5.32 16.9601 5.43757 17.254 5.49636C17.254 5.46697 17.2834 5.40818 17.2834 5.37878C17.5185 5.43757 17.7243 5.49636 17.9301 5.55515C18.1946 5.37878 18.5473 5.34939 18.9882 5.46697C19.1646 5.32 19.6055 5.58454 19.8113 5.43757C20.5755 5.32 21.3397 5.23181 22.2509 5.32C22.5743 5.23181 22.8094 5.02606 23.3091 5.23181C23.9558 5.02606 24.8082 5.17303 25.5136 5.05545C25.5724 4.79091 25.9839 5.11424 26.1897 5.11424L27.2479 5.49636C27.1303 5.7609 26.7776 5.64333 26.513 5.67272C26.2485 5.70211 26.0721 5.87848 25.69 5.70212C25.3961 5.90787 25.0727 6.02545 24.6024 5.90787C24.1321 5.90787 23.8382 6.28999 23.1915 6.05484C23.074 6.37817 22.6331 6.14302 22.3685 6.20181C21.4867 6.28999 20.7225 6.55453 19.7819 6.52514C18.6355 6.76029 17.401 6.78968 16.2546 6.96605C15.0495 7.05423 13.9913 7.43635 12.7274 7.43635C12.2277 7.81846 11.2871 7.40695 10.9637 8.08301C10.7286 9.28815 12.3158 10.17 13.374 9.67027C13.4622 9.69967 13.521 9.69966 13.5798 9.72906C14.1089 9.90542 14.4028 9.64088 14.9319 9.81724C14.9613 9.81724 14.9907 9.84663 15.0495 9.84663C15.2552 9.67027 15.7255 9.96421 15.9607 9.84663C16.1076 9.61148 16.5779 9.96421 16.8425 9.96421C16.6955 10.1406 16.4016 10.0818 16.2252 10.17C15.8725 10.2581 15.461 10.2288 15.0495 10.2581C15.0495 10.2875 15.0201 10.3463 15.0201 10.3757C13.4034 10.4933 11.8749 10.8166 10.2877 11.0224C9.87616 11.2281 9.25889 11.0518 8.93556 11.4045C8.64162 12.2275 9.25889 12.4333 9.37647 12.9624C10.6992 13.2563 11.8455 13.2857 12.9919 13.2563C13.1977 13.1093 13.5504 13.1387 13.9031 13.2563C14.4322 13.3151 14.7261 12.9918 15.4022 13.2563L15.5786 13.9324Z" fill="#262626"/>
<path d="M29.5409 10.3756H19.3413V12.6683H29.5409V10.3756Z" fill="white"/>
<path d="M29.5409 13.315H19.3413V15.6077H29.5409V13.315Z" fill="white"/>
<path d="M27.7479 16.2543H20.8403V18.4883H27.7479V16.2543Z" fill="white"/>
<path d="M27.7479 19.1348H20.8403V21.3981H27.7479V19.1348Z" fill="white"/>
<path d="M27.7479 22.0156H20.8403V24.2789H27.7479V22.0156Z" fill="white"/>
<path d="M27.7479 24.9255H20.8403V27.1595H27.7479V24.9255Z" fill="white"/>
<path d="M27.7479 27.806H20.8403V30.0399H27.7479V27.806Z" fill="white"/>
<path d="M29.5405 30.6868H19.3408V32.9208H29.5405V30.6868Z" fill="white"/>
<path d="M29.5409 33.5085H19.3413V35.7424H29.5409V33.5085Z" fill="white"/>
<path d="M70.5744 10.3756H49.3228V12.6683H70.5744V10.3756Z" fill="white"/>
<path d="M70.5452 13.315H49.2642V15.6077H70.5452V13.315Z" fill="white"/>
<path d="M63.3435 16.2543H56.4653V18.4883H63.3435V16.2543Z" fill="white"/>
<path d="M70.6333 16.2543H65.9009V18.1061H70.6333V16.2543Z" fill="white"/>
<path d="M53.9668 16.2543H49.2344V18.1061H53.9668V16.2543Z" fill="white"/>
<path d="M63.3435 19.1348H56.4653V21.3981H63.3435V19.1348Z" fill="white"/>
<path d="M63.3435 22.0156H56.4653V24.2789H63.3435V22.0156Z" fill="white"/>
<path d="M63.3435 24.9255H56.4653V27.1595H63.3435V24.9255Z" fill="white"/>
<path d="M63.3435 27.806H56.4653V30.0399H63.3435V27.806Z" fill="white"/>
<path d="M65.0189 30.6868H54.8486V32.9208H65.0189V30.6868Z" fill="white"/>
<path d="M65.0189 33.5085H54.8486V35.7424H65.0189V33.5085Z" fill="white"/>
<path d="M48.1763 16.2543H42.0918V18.1649H48.1763V16.2543Z" fill="white"/>
<path d="M38.4764 28.0118H32.0098V29.9224H38.4764V28.0118Z" fill="white"/>
<path d="M48.3527 12.6683H32.3037C32.3037 12.6683 33.5382 10.3756 36.801 10.3756H48.3527V12.6683Z" fill="white"/>
<path d="M48.3526 15.6077H31.7451V13.9911C31.7451 13.7853 31.9803 13.4326 32.0685 13.315H48.382V15.6077H48.3526Z" fill="white"/>
<path d="M32.2451 33.4789H48.7938C48.7938 33.4789 47.5005 35.7717 44.179 35.7717H32.2745V33.4789H32.2451Z" fill="white"/>
<path d="M32.2451 30.5103H49.1759V32.509C49.0877 32.7148 49.0877 32.6854 49.0289 32.803H32.2451V30.5103Z" fill="white"/>
<path d="M38.5351 16.2543H31.7451V18.4883H38.5351V16.2543Z" fill="white"/>
<path d="M33.2736 24.2787H49.2344C49.2344 24.2787 48.8523 22.8384 48.0293 22.0154H31.8921C31.8921 22.0154 32.2742 23.3969 33.2736 24.2787Z" fill="white"/>
<path d="M47.3531 21.3981C47.3531 21.3981 46.5007 20.7809 45.4719 20.4869H38.5644V19.1348H31.7744V21.3981H47.3531Z" fill="white"/>
<path d="M49.2049 27.7179H42.2974V29.9812H49.2049V27.7179Z" fill="white"/>
<path d="M49.2051 24.9255V24.7786H33.9497C33.9497 24.7786 34.5964 25.3077 35.6252 25.5428H42.2975V27.0125H49.2345V24.9255H49.2051Z" fill="white"/>
</g>
<defs>
<clipPath id="clip0_26391_11257">
<rect width="85.2125" height="48" fill="white"/>
</clipPath>
</defs>
</svg>
