<?xml version="1.0" encoding="UTF-8"?>
<svg width="124" height="36" viewBox="0 0 124 36" fill="none" xmlns="http://www.w3.org/2000/svg">
  <path d="M18.5 7L7.5 11.5V17L18.5 12.5L29.5 17V11.5L18.5 7Z" fill="#FCB400"/>
  <path d="M18.5 12.5V24L29.5 28.5V17L18.5 12.5Z" fill="#18BFFF"/>
  <path d="M7.5 17V28.5L18.5 24V12.5L7.5 17Z" fill="#F82B60"/>
  <path d="M45 16.5H41.5V26.5H45V16.5Z" fill="#333333"/>
  <path d="M46.5 21.5C46.5 19.01 48.51 17 51 17C53.49 17 55.5 19.01 55.5 21.5C55.5 23.99 53.49 26 51 26C48.51 26 46.5 23.99 46.5 21.5Z" fill="#333333"/>
  <path d="M63 17H59.5V26.5H63V17Z" fill="#333333"/>
  <path d="M72.5 17H69V26.5H72.5V17Z" fill="#333333"/>
  <path d="M78.5 17H75V26.5H78.5V17Z" fill="#333333"/>
</svg>
