<?xml version="1.0" encoding="UTF-8"?>
<svg width="124" height="36" viewBox="0 0 124 36" fill="none" xmlns="http://www.w3.org/2000/svg">
  <path d="M18 8C14.6863 8 12 10.6863 12 14C12 17.3137 14.6863 20 18 20C21.3137 20 24 17.3137 24 14C24 10.6863 21.3137 8 18 8Z" fill="#FC636B"/>
  <path d="M29 20C25.6863 20 23 22.6863 23 26C23 29.3137 25.6863 32 29 32C32.3137 32 35 29.3137 35 26C35 22.6863 32.3137 20 29 20Z" fill="#FC636B"/>
  <path d="M7 20C3.68629 20 1 22.6863 1 26C1 29.3137 3.68629 32 7 32C10.3137 32 13 29.3137 13 26C13 22.6863 10.3137 20 7 20Z" fill="#FC636B"/>
  <path d="M45 16.5H41.5V26.5H45V16.5Z" fill="#333333"/>
  <path d="M46.5 21.5C46.5 19.01 48.51 17 51 17C53.49 17 55.5 19.01 55.5 21.5C55.5 23.99 53.49 26 51 26C48.51 26 46.5 23.99 46.5 21.5Z" fill="#333333"/>
  <path d="M63 17H59.5V26.5H63V17Z" fill="#333333"/>
  <path d="M72.5 17H69V26.5H72.5V17Z" fill="#333333"/>
  <path d="M78.5 17H75V26.5H78.5V17Z" fill="#333333"/>
</svg>
