<?xml version="1.0" encoding="UTF-8"?>
<svg width="124" height="36" viewBox="0 0 124 36" fill="none" xmlns="http://www.w3.org/2000/svg">
  <path d="M20.5 8H10.5C9.39543 8 8.5 8.89543 8.5 10V26C8.5 27.1046 9.39543 28 10.5 28H25.5C26.6046 28 27.5 27.1046 27.5 26V15L20.5 8Z" fill="black"/>
  <path d="M20.5 8V15H27.5L20.5 8Z" fill="#D4D4D4"/>
  <path d="M45 16.5H41.5V26.5H45V16.5Z" fill="#333333"/>
  <path d="M46.5 21.5C46.5 19.01 48.51 17 51 17C53.49 17 55.5 19.01 55.5 21.5C55.5 23.99 53.49 26 51 26C48.51 26 46.5 23.99 46.5 21.5Z" fill="#333333"/>
  <path d="M63 17H59.5V26.5H63V17Z" fill="#333333"/>
  <path d="M72.5 17H69V26.5H72.5V17Z" fill="#333333"/>
  <path d="M78.5 17H75V26.5H78.5V17Z" fill="#333333"/>
</svg>
