<?xml version="1.0" encoding="UTF-8"?>
<svg width="124" height="36" viewBox="0 0 124 36" fill="none" xmlns="http://www.w3.org/2000/svg">
  <path d="M24.4453 8.12891C24.4258 8.05078 24.3672 8.01172 24.3086 8.01172C24.25 8.01172 22.4648 7.97266 22.4648 7.97266C22.4648 7.97266 20.9766 6.50391 20.8398 6.36719C20.7031 6.23047 20.4492 6.25 20.3516 6.26953C20.3516 6.26953 19.8633 6.40625 19.0312 6.62109C18.9336 6.25 18.7773 5.82031 18.543 5.39062C17.7695 3.88281 16.5742 3 15.0273 3C14.9492 3 14.8516 3 14.7734 3.01953C14.7344 3 14.6953 2.98047 14.6562 2.98047C14.6367 2.98047 14.6172 2.98047 14.5977 3C14.5781 2.98047 14.5586 2.98047 14.5391 2.98047C14.0703 3.05859 13.6406 3.19531 13.25 3.39062C13.2305 3.39062 13.2305 3.39062 13.2109 3.41016C12.0352 2.98047 11.2812 4.33594 10.9883 5.03906C10.0195 7.01172 9.33594 9.80469 9.12109 10.8516L7.07031 11.4766C6.07422 11.7695 6.05469 11.7891 5.97656 12.7266L3.80859 30.4492L20.8789 33L28.1055 31.0859L24.4453 8.12891ZM19.1484 7.01172C18.5039 7.1875 17.7695 7.38281 16.9766 7.61719C16.9766 7.46094 16.957 7.32422 16.957 7.16797C16.957 6.36719 16.8008 5.72266 16.5469 5.21484C17.2109 5.17578 17.7305 5.46875 18.1016 6.13281C18.3359 6.52344 18.5234 6.99219 18.6602 7.5C18.5039 7.33594 18.25 7.11328 19.1484 7.01172ZM15.9961 5.58594C16.1328 5.95703 16.2109 6.44531 16.2109 7.05078C16.2109 7.12891 16.2109 7.1875 16.2109 7.26562C15.1836 7.57812 14.0078 7.94922 12.8125 8.32031C13.2695 6.79297 14.0898 5.70703 14.9688 5.35547C15.3594 5.19922 15.7109 5.3164 15.9961 5.58594ZM14.9883 4.33594C15.0859 4.33594 15.1836 4.35547 15.2812 4.375C14.6953 4.78516 13.8828 5.91016 13.3555 7.85547C12.4258 8.14844 11.5156 8.44141 10.6836 8.69531C11.1328 7.01172 11.9258 4.76562 12.7383 4.41406C13.1094 4.25781 13.5195 4.33594 13.8828 4.33594C14.2539 4.33594 14.6445 4.33594 14.9883 4.33594Z" fill="#95BF47"/>
  <path d="M24.3086 8.01172C24.25 8.01172 22.4648 7.97266 22.4648 7.97266C22.4648 7.97266 20.9766 6.50391 20.8398 6.36719C20.7812 6.30859 20.7031 6.28906 20.625 6.28906L20.8789 33L28.1055 31.0859L24.4453 8.12891C24.4258 8.05078 24.3672 8.01172 24.3086 8.01172Z" fill="#5E8E3E"/>
  <path d="M15.0273 12.4141L14.1172 15.7344C14.1172 15.7344 13.2891 15.3242 12.2734 15.3242C10.7266 15.3242 10.6875 16.2617 10.6875 16.5156C10.6875 18.0039 15.3984 18.5898 15.3984 22.5391C15.3984 25.6641 13.4961 27.7148 10.8242 27.7148C7.61719 27.7148 6.05469 25.7734 6.05469 25.7734L6.67969 23.125C6.67969 23.125 8.28125 24.5156 9.66797 24.5156C10.5781 24.5156 10.9297 23.7812 10.9297 23.2344C10.9297 21.2734 7.01172 21.0781 7.01172 17.5586C7.01172 14.6328 9.0625 11.8398 13.6406 11.8398C15.5625 11.8398 15.0273 12.4141 15.0273 12.4141Z" fill="white"/>
  <path d="M45 16.5H41.5V26.5H45V16.5Z" fill="#333333"/>
  <path d="M46.5 21.5C46.5 19.01 48.51 17 51 17C53.49 17 55.5 19.01 55.5 21.5C55.5 23.99 53.49 26 51 26C48.51 26 46.5 23.99 46.5 21.5Z" fill="#333333"/>
  <path d="M63 17H59.5V26.5H63V17Z" fill="#333333"/>
  <path d="M72.5 17H69V26.5H72.5V17Z" fill="#333333"/>
  <path d="M78.5 17H75V26.5H78.5V17Z" fill="#333333"/>
</svg>
