<?xml version="1.0" encoding="UTF-8"?>
<svg width="124" height="36" viewBox="0 0 124 36" fill="none" xmlns="http://www.w3.org/2000/svg">
  <path d="M25.5 10.5C25.5 8.01 23.49 6 21 6C18.51 6 16.5 8.01 16.5 10.5C16.5 12.99 18.51 15 21 15H25.5V10.5Z" fill="#E01E5A"/>
  <path d="M27 10.5C27 12.99 29.01 15 31.5 15C33.99 15 36 12.99 36 10.5C36 8.01 33.99 6 31.5 6H27V10.5Z" fill="#36C5F0"/>
  <path d="M31.5 16.5C29.01 16.5 27 18.51 27 21C27 23.49 29.01 25.5 31.5 25.5C33.99 25.5 36 23.49 36 21V16.5H31.5Z" fill="#2EB67D"/>
  <path d="M31.5 27C29.01 27 27 29.01 27 31.5C27 33.99 29.01 36 31.5 36C33.99 36 36 33.99 36 31.5V27H31.5Z" fill="#ECB22E"/>
  <path d="M25.5 31.5C25.5 33.99 23.49 36 21 36C18.51 36 16.5 33.99 16.5 31.5C16.5 29.01 18.51 27 21 27H25.5V31.5Z" fill="#E01E5A"/>
  <path d="M21 16.5C23.49 16.5 25.5 18.51 25.5 21C25.5 23.49 23.49 25.5 21 25.5C18.51 25.5 16.5 23.49 16.5 21V16.5H21Z" fill="#36C5F0"/>
  <path d="M16.5 21C16.5 23.49 14.49 25.5 12 25.5C9.51 25.5 7.5 23.49 7.5 21C7.5 18.51 9.51 16.5 12 16.5H16.5V21Z" fill="#2EB67D"/>
  <path d="M12 27C14.49 27 16.5 29.01 16.5 31.5C16.5 33.99 14.49 36 12 36C9.51 36 7.5 33.99 7.5 31.5V27H12Z" fill="#ECB22E"/>
  <path d="M12 6C14.49 6 16.5 8.01 16.5 10.5C16.5 12.99 14.49 15 12 15C9.51 15 7.5 12.99 7.5 10.5V6H12Z" fill="#E01E5A"/>
  <path d="M12 16.5C9.51 16.5 7.5 14.49 7.5 12C7.5 9.51 9.51 7.5 12 7.5C14.49 7.5 16.5 9.51 16.5 12V16.5H12Z" fill="#36C5F0"/>
  <path d="M7.5 12C7.5 9.51 5.49 7.5 3 7.5C0.51 7.5 -1.5 9.51 -1.5 12C-1.5 14.49 0.51 16.5 3 16.5H7.5V12Z" fill="#2EB67D"/>
  <path d="M3 16.5C5.49 16.5 7.5 18.51 7.5 21C7.5 23.49 5.49 25.5 3 25.5C0.51 25.5 -1.5 23.49 -1.5 21V16.5H3Z" fill="#ECB22E"/>
  <path d="M50 12.5H46.5V22.5H50V12.5Z" fill="#333333"/>
  <path d="M51.5 17.5C51.5 15.01 53.51 13 56 13C58.49 13 60.5 15.01 60.5 17.5C60.5 19.99 58.49 22 56 22C53.51 22 51.5 19.99 51.5 17.5Z" fill="#333333"/>
  <path d="M68 13H64.5V22.5H68V13Z" fill="#333333"/>
  <path d="M77.5 13H74V22.5H77.5V13Z" fill="#333333"/>
  <path d="M83.5 13H80V22.5H83.5V13Z" fill="#333333"/>
</svg>
