<?xml version="1.0" encoding="UTF-8"?>
<svg width="124" height="36" viewBox="0 0 124 36" fill="none" xmlns="http://www.w3.org/2000/svg">
  <path d="M36 17.9998C36 12.4771 31.5228 7.99982 26 7.99982H10C4.47715 7.99982 0 12.4771 0 17.9998C0 23.5227 4.47715 27.9998 10 27.9998H26C31.5228 27.9998 36 23.5227 36 17.9998Z" fill="#4A8CFF"/>
  <path d="M15 13H25C25.5523 13 26 13.4477 26 14V22C26 22.5523 25.5523 23 25 23H15C14.4477 23 14 22.5523 14 22V14C14 13.4477 14.4477 13 15 13Z" fill="white"/>
  <path d="M10 13H12C12.5523 13 13 13.4477 13 14V22C13 22.5523 12.5523 23 12 23H10C9.44772 23 9 22.5523 9 22V14C9 13.4477 9.44772 13 10 13Z" fill="white"/>
  <path d="M45 16.5H41.5V26.5H45V16.5Z" fill="#333333"/>
  <path d="M46.5 21.5C46.5 19.01 48.51 17 51 17C53.49 17 55.5 19.01 55.5 21.5C55.5 23.99 53.49 26 51 26C48.51 26 46.5 23.99 46.5 21.5Z" fill="#333333"/>
  <path d="M63 17H59.5V26.5H63V17Z" fill="#333333"/>
  <path d="M72.5 17H69V26.5H72.5V17Z" fill="#333333"/>
  <path d="M78.5 17H75V26.5H78.5V17Z" fill="#333333"/>
</svg>
